<?xml version="1.0" encoding="utf-8"?>
<!-- Generator: Adobe Illustrator 25.2.0, SVG Export Plug-In . SVG Version: 6.00 Build 0)  -->
<svg version="1.1" id="Layer_1" xmlns="http://www.w3.org/2000/svg" xmlns:xlink="http://www.w3.org/1999/xlink" x="0px" y="0px"
	 viewBox="0 0 507 109" style="enable-background:new 0 0 507 109;" xml:space="preserve">
<style type="text/css">
	.st0{enable-background:new    ;}
	.st1{fill:#FFFFFF;}
</style>
<g class="st0">
	<path class="st1" d="M48.4,109.5c-7.6-1.2-13.5-2.8-17.6-4.9c-4.1-2.1-6.9-4.6-8.4-7.6c-1.5-3-2.3-6.3-2.3-10.1l0.1-11.1
		c0-8.9-5.1-13.5-15.2-13.7h-5V52h5.3c5-0.1,8.7-1.4,11.2-4c2.5-2.6,3.7-6,3.7-10.2l-0.1-11.1c0-6.2,2.2-11.1,6.5-14.7
		c4.3-3.5,11.6-6.2,21.8-7.9l2.1,9.2c-5.2,1.2-9.1,2.5-11.8,3.9c-2.6,1.4-4.3,3.1-5.2,5c-0.9,2-1.3,4.4-1.3,7.3l0.2,9.9
		c0,4.7-1.3,8.5-3.8,11.3c-2.5,2.9-6,4.9-10.4,6c4.5,1.2,8,3.3,10.5,6.2c2.5,2.9,3.7,6.6,3.7,11.1l-0.2,9.9c0,2.9,0.4,5.3,1.3,7.2
		c0.9,1.9,2.6,3.6,5.2,5c2.6,1.4,6.5,2.7,11.8,4L48.4,109.5z"/>
	<path class="st1" d="M458.1,4.2c7.6,1.2,13.5,2.8,17.6,4.9c4.1,2.1,6.9,4.6,8.4,7.6c1.5,3,2.3,6.3,2.3,10.1l-0.1,11.1
		c0,8.9,5.1,13.5,15.2,13.7h5v10.1h-5.3c-5,0.1-8.7,1.4-11.2,4c-2.5,2.6-3.7,6-3.7,10.2l0.1,11.1c0,6.2-2.2,11.1-6.5,14.7
		c-4.3,3.5-11.6,6.2-21.8,7.9l-2.1-9.2c5.2-1.2,9.1-2.5,11.8-3.9c2.6-1.4,4.3-3.1,5.2-5c0.9-2,1.3-4.4,1.3-7.3l-0.2-9.9
		c0-4.7,1.3-8.5,3.8-11.3c2.5-2.9,6-4.9,10.4-6c-4.5-1.2-8-3.3-10.5-6.2c-2.5-2.9-3.7-6.6-3.7-11.1l0.2-9.9c0-2.9-0.4-5.3-1.3-7.2
		c-0.9-1.9-2.6-3.6-5.2-5c-2.6-1.4-6.5-2.7-11.8-4L458.1,4.2z"/>
</g>
<g class="st0">
	<path class="st1" d="M48.4,109.5c-7.6-1.2-13.5-2.8-17.6-4.9c-4.1-2.1-6.9-4.6-8.4-7.6c-1.5-3-2.3-6.3-2.3-10.1l0.1-11.1
		c0-8.9-5.1-13.5-15.2-13.7h-5V52h5.3c5-0.1,8.7-1.4,11.2-4c2.5-2.6,3.7-6,3.7-10.2l-0.1-11.1c0-6.2,2.2-11.1,6.5-14.7
		c4.3-3.5,11.6-6.2,21.8-7.9l2.1,9.2c-5.2,1.2-9.1,2.5-11.8,3.9c-2.6,1.4-4.3,3.1-5.2,5c-0.9,2-1.3,4.4-1.3,7.3l0.2,9.9
		c0,4.7-1.3,8.5-3.8,11.3c-2.5,2.9-6,4.9-10.4,6c4.5,1.2,8,3.3,10.5,6.2c2.5,2.9,3.7,6.6,3.7,11.1l-0.2,9.9c0,2.9,0.4,5.3,1.3,7.2
		c0.9,1.9,2.6,3.6,5.2,5c2.6,1.4,6.5,2.7,11.8,4L48.4,109.5z"/>
	<path class="st1" d="M458.1,4.2c7.6,1.2,13.5,2.8,17.6,4.9c4.1,2.1,6.9,4.6,8.4,7.6c1.5,3,2.3,6.3,2.3,10.1l-0.1,11.1
		c0,8.9,5.1,13.5,15.2,13.7h5v10.1h-5.3c-5,0.1-8.7,1.4-11.2,4c-2.5,2.6-3.7,6-3.7,10.2l0.1,11.1c0,6.2-2.2,11.1-6.5,14.7
		c-4.3,3.5-11.6,6.2-21.8,7.9l-2.1-9.2c5.2-1.2,9.1-2.5,11.8-3.9c2.6-1.4,4.3-3.1,5.2-5c0.9-2,1.3-4.4,1.3-7.3l-0.2-9.9
		c0-4.7,1.3-8.5,3.8-11.3c2.5-2.9,6-4.9,10.4-6c-4.5-1.2-8-3.3-10.5-6.2c-2.5-2.9-3.7-6.6-3.7-11.1l0.2-9.9c0-2.9-0.4-5.3-1.3-7.2
		c-0.9-1.9-2.6-3.6-5.2-5c-2.6-1.4-6.5-2.7-11.8-4L458.1,4.2z"/>
</g>
<g class="st0">
	<path class="st1" d="M84.2,40.2c2.9,3.2,5.9,5.8,9,7.6c3.1,1.8,7,2.7,11.6,2.7c2.4,0,4.8-0.3,7-1c2.3-0.6,4.1-1.6,5.6-2.9
		c1.5-1.3,2.2-2.9,2.2-4.8c0-2.7-1.5-4.6-4.4-5.8c-2.9-1.1-7.1-2.1-12.4-2.8c-6.6-1-11.8-2.8-15.7-5.3c-3.9-2.6-5.8-6.4-5.8-11.4
		c0-3.4,1-6.3,3.1-8.8c2.1-2.5,4.9-4.3,8.4-5.7c3.5-1.3,7.4-2,11.7-2c5.3,0,9.9,0.9,13.7,2.6c3.8,1.7,6.9,4.2,9.2,7.4l-6,6.3
		c-1.9-2.5-4.3-4.5-7.1-6.1c-2.9-1.6-6.2-2.3-10-2.3c-3.9,0-7.1,0.7-9.8,2.1c-2.6,1.4-3.9,3.3-3.9,5.8c0,1.9,0.6,3.5,1.9,4.7
		c1.3,1.2,3.1,2.1,5.3,2.8c2.3,0.7,5,1.2,8.1,1.7c3,0.4,5.8,1,8.5,1.7c2.7,0.7,5.2,1.6,7.3,2.8c2.2,1.2,3.9,2.6,5.1,4.4
		c1.3,1.8,1.9,4,1.9,6.6c0,3.7-1,6.9-3,9.6c-2,2.7-4.8,4.8-8.5,6.3c-3.7,1.5-8,2.2-13,2.2c-5.3,0-10.2-0.9-14.5-2.6
		c-4.3-1.7-8.1-4.5-11.3-8.4L84.2,40.2z"/>
	<path class="st1" d="M197.3,0.9h8.7v56.7h-8.5l-40.8-44.1c0.3,3.5,0.6,6.9,1,10.3c0.3,3.4,0.5,6.8,0.5,10.3v23.6h-8.7V0.9h8.3
		l40.9,45.3c-0.4-2.7-0.7-5.6-0.9-8.6c-0.2-3-0.3-6.1-0.4-9.2c-0.1-3.1-0.1-6-0.1-8.8V0.9z"/>
	<path class="st1" d="M275.1,57.6L269,44h-30l-6.2,13.6h-9.1l25.6-56.7h9.8l25.4,56.7H275.1z M249.7,20.6l-6.8,14.9h22.4l-7-15.2
		c-0.7-1.7-1.4-3.4-2.1-5.1c-0.7-1.7-1.4-3.5-2.1-5.3c-0.8,1.9-1.5,3.8-2.2,5.5C251.2,17.2,250.4,18.9,249.7,20.6z"/>
	<path class="st1" d="M351,49.6c-1.4,1.3-3.3,2.6-5.7,4c-2.4,1.4-5.1,2.5-8.2,3.4c-3.1,0.9-6.4,1.4-9.8,1.4c-4.3,0-8.3-0.7-12.1-2.1
		c-3.7-1.4-7-3.3-9.8-5.9c-2.8-2.5-5-5.6-6.5-9.2c-1.6-3.6-2.3-7.6-2.3-12c0-4.2,0.8-8,2.5-11.5c1.6-3.5,3.9-6.6,6.8-9.2
		s6.2-4.6,9.9-6c3.7-1.4,7.7-2.1,11.8-2.1c3.5,0,6.7,0.5,9.8,1.4c3.1,0.9,5.9,2.1,8.3,3.6c2.5,1.5,4.4,3,6,4.5l-5.4,7
		c-2.6-2.3-5.5-4.1-8.6-5.6S330.9,9,327,9c-2.8,0-5.4,0.5-8,1.4c-2.6,0.9-4.9,2.3-6.9,4c-2,1.8-3.6,3.9-4.9,6.4
		c-1.2,2.5-1.8,5.3-1.8,8.4c0,4.5,1.1,8.3,3.2,11.4c2.1,3.1,4.9,5.3,8.4,6.9c3.5,1.5,7.2,2.3,11.2,2.3c2.8,0,5.3-0.4,7.6-1.1
		c2.3-0.8,4.3-1.7,6.1-2.8c1.8-1.1,3.4-2.3,4.8-3.4L351,49.6z"/>
	<path class="st1" d="M380.2,57.6h-8.7V0.9h8.7v29.6l13.1-10.9l22-18.7h12.4l-27.5,23l27,33.7h-11.3l-22.3-28.1l-13.4,11.2V57.6z"/>
</g>
<g class="st0">
	<path class="st1" d="M84.2,40.2c2.9,3.2,5.9,5.8,9,7.6c3.1,1.8,7,2.7,11.6,2.7c2.4,0,4.8-0.3,7-1c2.3-0.6,4.1-1.6,5.6-2.9
		c1.5-1.3,2.2-2.9,2.2-4.8c0-2.7-1.5-4.6-4.4-5.8c-2.9-1.1-7.1-2.1-12.4-2.8c-6.6-1-11.8-2.8-15.7-5.3c-3.9-2.6-5.8-6.4-5.8-11.4
		c0-3.4,1-6.3,3.1-8.8c2.1-2.5,4.9-4.3,8.4-5.7c3.5-1.3,7.4-2,11.7-2c5.3,0,9.9,0.9,13.7,2.6c3.8,1.7,6.9,4.2,9.2,7.4l-6,6.3
		c-1.9-2.5-4.3-4.5-7.1-6.1c-2.9-1.6-6.2-2.3-10-2.3c-3.9,0-7.1,0.7-9.8,2.1c-2.6,1.4-3.9,3.3-3.9,5.8c0,1.9,0.6,3.5,1.9,4.7
		c1.3,1.2,3.1,2.1,5.3,2.8c2.3,0.7,5,1.2,8.1,1.7c3,0.4,5.8,1,8.5,1.7c2.7,0.7,5.2,1.6,7.3,2.8c2.2,1.2,3.9,2.6,5.1,4.4
		c1.3,1.8,1.9,4,1.9,6.6c0,3.7-1,6.9-3,9.6c-2,2.7-4.8,4.8-8.5,6.3c-3.7,1.5-8,2.2-13,2.2c-5.3,0-10.2-0.9-14.5-2.6
		c-4.3-1.7-8.1-4.5-11.3-8.4L84.2,40.2z"/>
	<path class="st1" d="M197.3,0.9h8.7v56.7h-8.5l-40.8-44.1c0.3,3.5,0.6,6.9,1,10.3c0.3,3.4,0.5,6.8,0.5,10.3v23.6h-8.7V0.9h8.3
		l40.9,45.3c-0.4-2.7-0.7-5.6-0.9-8.6c-0.2-3-0.3-6.1-0.4-9.2c-0.1-3.1-0.1-6-0.1-8.8V0.9z"/>
	<path class="st1" d="M275.1,57.6L269,44h-30l-6.2,13.6h-9.1l25.6-56.7h9.8l25.4,56.7H275.1z M249.7,20.6l-6.8,14.9h22.4l-7-15.2
		c-0.7-1.7-1.4-3.4-2.1-5.1c-0.7-1.7-1.4-3.5-2.1-5.3c-0.8,1.9-1.5,3.8-2.2,5.5C251.2,17.2,250.4,18.9,249.7,20.6z"/>
	<path class="st1" d="M351,49.6c-1.4,1.3-3.3,2.6-5.7,4c-2.4,1.4-5.1,2.5-8.2,3.4c-3.1,0.9-6.4,1.4-9.8,1.4c-4.3,0-8.3-0.7-12.1-2.1
		c-3.7-1.4-7-3.3-9.8-5.9c-2.8-2.5-5-5.6-6.5-9.2c-1.6-3.6-2.3-7.6-2.3-12c0-4.2,0.8-8,2.5-11.5c1.6-3.5,3.9-6.6,6.8-9.2
		s6.2-4.6,9.9-6c3.7-1.4,7.7-2.1,11.8-2.1c3.5,0,6.7,0.5,9.8,1.4c3.1,0.9,5.9,2.1,8.3,3.6c2.5,1.5,4.4,3,6,4.5l-5.4,7
		c-2.6-2.3-5.5-4.1-8.6-5.6S330.9,9,327,9c-2.8,0-5.4,0.5-8,1.4c-2.6,0.9-4.9,2.3-6.9,4c-2,1.8-3.6,3.9-4.9,6.4
		c-1.2,2.5-1.8,5.3-1.8,8.4c0,4.5,1.1,8.3,3.2,11.4c2.1,3.1,4.9,5.3,8.4,6.9c3.5,1.5,7.2,2.3,11.2,2.3c2.8,0,5.3-0.4,7.6-1.1
		c2.3-0.8,4.3-1.7,6.1-2.8c1.8-1.1,3.4-2.3,4.8-3.4L351,49.6z"/>
	<path class="st1" d="M380.2,57.6h-8.7V0.9h8.7v29.6l13.1-10.9l22-18.7h12.4l-27.5,23l27,33.7h-11.3l-22.3-28.1l-13.4,11.2V57.6z"/>
</g>
<g class="st0">
	<path class="st1" d="M119.1,85.4c0,2.5-0.5,4.8-1.4,6.9c-0.9,2.1-2.3,4-4,5.6c-1.7,1.6-3.8,2.9-6.1,3.7c-2.4,0.9-4.9,1.3-7.8,1.3
		c-2.8,0-5.4-0.4-7.8-1.3c-2.4-0.9-4.4-2.1-6.1-3.7c-1.7-1.6-3-3.5-4-5.6c-0.9-2.1-1.4-4.5-1.4-6.9c0-2.5,0.5-4.8,1.4-6.9
		c0.9-2.1,2.3-4,4-5.6c1.7-1.6,3.8-2.8,6.1-3.7c2.4-0.9,5-1.3,7.8-1.3c2.8,0,5.4,0.4,7.8,1.3c2.4,0.9,4.4,2.1,6.1,3.7
		c1.7,1.6,3.1,3.5,4,5.6C118.7,80.6,119.1,82.9,119.1,85.4z M113.7,85.4c0-2.4-0.6-4.5-1.8-6.4c-1.2-1.9-2.8-3.4-4.9-4.5
		c-2.1-1.1-4.5-1.6-7.2-1.6c-2.7,0-5.2,0.5-7.3,1.6c-2.1,1.1-3.7,2.6-4.9,4.5c-1.2,1.9-1.8,4-1.8,6.4c0,2.4,0.6,4.5,1.8,6.4
		c1.2,1.9,2.8,3.4,4.9,4.5c2.1,1.1,4.5,1.6,7.3,1.6c2.7,0,5.1-0.5,7.2-1.6c2.1-1.1,3.8-2.6,4.9-4.5
		C113.1,89.9,113.7,87.8,113.7,85.4z"/>
	<path class="st1" d="M161.7,68.3l-14.8,34.3h-5.9l-15-34.3h6l8.8,20.6c0.5,1.2,1.1,2.6,1.7,4c0.6,1.4,1.2,2.8,1.7,4.1
		c0.5-1.3,1-2.7,1.6-4.1c0.6-1.4,1.1-2.7,1.6-3.9l8.2-20.6H161.7z"/>
	<path class="st1" d="M172.4,102.6V68.3h26v5.1h-20.7v9.1h18v5.1h-18v9.9h20.7v5.1H172.4z"/>
	<path class="st1" d="M241.3,78.9c0,2.3-0.7,4.4-2.1,6.2s-3.2,3.2-5.4,3.9l9.3,13.5l-6.6,0l-8.7-12.7h-10.3v12.7h-5.3V68.3h18.1
		c1.9,0,3.7,0.5,5.4,1.4c1.7,0.9,3,2.2,4.1,3.8C240.8,75,241.3,76.9,241.3,78.9z M229,73.4h-11.5v11.4h12c1.2,0,2.2-0.3,3.2-0.8
		c0.9-0.5,1.7-1.2,2.2-2.1c0.5-0.9,0.8-1.8,0.8-2.8c0-1.1-0.3-2-0.9-2.9c-0.6-0.8-1.4-1.5-2.5-2C231.4,73.6,230.2,73.4,229,73.4z"/>
	<path class="st1" d="M256.2,102.6V68.3h26v5.1h-20.7v9.8H280v5.1h-18.5v14.3H256.2z"/>
	<path class="st1" d="M320.6,97.5v5.1h-25.7V68.3h5.3v29.2H320.6z"/>
	<path class="st1" d="M368.7,85.4c0,2.5-0.5,4.8-1.4,6.9c-0.9,2.1-2.3,4-4,5.6c-1.7,1.6-3.8,2.9-6.1,3.7s-4.9,1.3-7.8,1.3
		c-2.8,0-5.4-0.4-7.8-1.3c-2.4-0.9-4.4-2.1-6.1-3.7c-1.7-1.6-3-3.5-4-5.6c-0.9-2.1-1.4-4.5-1.4-6.9c0-2.5,0.5-4.8,1.4-6.9
		c0.9-2.1,2.3-4,4-5.6c1.7-1.6,3.8-2.8,6.1-3.7c2.4-0.9,5-1.3,7.8-1.3c2.8,0,5.4,0.4,7.8,1.3s4.4,2.1,6.1,3.7c1.7,1.6,3.1,3.5,4,5.6
		C368.2,80.6,368.7,82.9,368.7,85.4z M363.3,85.4c0-2.4-0.6-4.5-1.8-6.4c-1.2-1.9-2.8-3.4-4.9-4.5c-2.1-1.1-4.5-1.6-7.2-1.6
		c-2.7,0-5.2,0.5-7.3,1.6c-2.1,1.1-3.7,2.6-4.9,4.5c-1.2,1.9-1.8,4-1.8,6.4c0,2.4,0.6,4.5,1.8,6.4c1.2,1.9,2.8,3.4,4.9,4.5
		c2.1,1.1,4.5,1.6,7.3,1.6c2.7,0,5.1-0.5,7.2-1.6c2.1-1.1,3.8-2.6,4.9-4.5C362.7,89.9,363.3,87.8,363.3,85.4z"/>
	<path class="st1" d="M427.6,68.3l-13,34.3h-3.7l-9.2-21.5l-9.2,21.5h-3.9l-12-34.3h5.7l7,20.6c0.3,0.9,0.6,1.8,0.9,2.7
		c0.3,0.9,0.5,1.9,0.8,2.7c0.3-0.9,0.7-1.8,1-2.7s0.7-1.9,1.1-2.8l6.3-14.7h4.9l6.1,14.6c0.4,0.9,0.8,1.9,1.1,2.8
		c0.4,0.9,0.7,1.8,1,2.7c0.3-0.9,0.5-1.8,0.8-2.8c0.3-1,0.6-1.9,1-2.9l7.5-20.3H427.6z"/>
</g>
<g class="st0">
	<path class="st1" d="M119.1,85.4c0,2.5-0.5,4.8-1.4,6.9c-0.9,2.1-2.3,4-4,5.6c-1.7,1.6-3.8,2.9-6.1,3.7c-2.4,0.9-4.9,1.3-7.8,1.3
		c-2.8,0-5.4-0.4-7.8-1.3c-2.4-0.9-4.4-2.1-6.1-3.7c-1.7-1.6-3-3.5-4-5.6c-0.9-2.1-1.4-4.5-1.4-6.9c0-2.5,0.5-4.8,1.4-6.9
		c0.9-2.1,2.3-4,4-5.6c1.7-1.6,3.8-2.8,6.1-3.7c2.4-0.9,5-1.3,7.8-1.3c2.8,0,5.4,0.4,7.8,1.3c2.4,0.9,4.4,2.1,6.1,3.7
		c1.7,1.6,3.1,3.5,4,5.6C118.7,80.6,119.1,82.9,119.1,85.4z M113.7,85.4c0-2.4-0.6-4.5-1.8-6.4c-1.2-1.9-2.8-3.4-4.9-4.5
		c-2.1-1.1-4.5-1.6-7.2-1.6c-2.7,0-5.2,0.5-7.3,1.6c-2.1,1.1-3.7,2.6-4.9,4.5c-1.2,1.9-1.8,4-1.8,6.4c0,2.4,0.6,4.5,1.8,6.4
		c1.2,1.9,2.8,3.4,4.9,4.5c2.1,1.1,4.5,1.6,7.3,1.6c2.7,0,5.1-0.5,7.2-1.6c2.1-1.1,3.8-2.6,4.9-4.5
		C113.1,89.9,113.7,87.8,113.7,85.4z"/>
	<path class="st1" d="M161.7,68.3l-14.8,34.3h-5.9l-15-34.3h6l8.8,20.6c0.5,1.2,1.1,2.6,1.7,4c0.6,1.4,1.2,2.8,1.7,4.1
		c0.5-1.3,1-2.7,1.6-4.1c0.6-1.4,1.1-2.7,1.6-3.9l8.2-20.6H161.7z"/>
	<path class="st1" d="M172.4,102.6V68.3h26v5.1h-20.7v9.1h18v5.1h-18v9.9h20.7v5.1H172.4z"/>
	<path class="st1" d="M241.3,78.9c0,2.3-0.7,4.4-2.1,6.2s-3.2,3.2-5.4,3.9l9.3,13.5l-6.6,0l-8.7-12.7h-10.3v12.7h-5.3V68.3h18.1
		c1.9,0,3.7,0.5,5.4,1.4c1.7,0.9,3,2.2,4.1,3.8C240.8,75,241.3,76.9,241.3,78.9z M229,73.4h-11.5v11.4h12c1.2,0,2.2-0.3,3.2-0.8
		c0.9-0.5,1.7-1.2,2.2-2.1c0.5-0.9,0.8-1.8,0.8-2.8c0-1.1-0.3-2-0.9-2.9c-0.6-0.8-1.4-1.5-2.5-2C231.4,73.6,230.2,73.4,229,73.4z"/>
	<path class="st1" d="M256.2,102.6V68.3h26v5.1h-20.7v9.8H280v5.1h-18.5v14.3H256.2z"/>
	<path class="st1" d="M320.6,97.5v5.1h-25.7V68.3h5.3v29.2H320.6z"/>
	<path class="st1" d="M368.7,85.4c0,2.5-0.5,4.8-1.4,6.9c-0.9,2.1-2.3,4-4,5.6c-1.7,1.6-3.8,2.9-6.1,3.7s-4.9,1.3-7.8,1.3
		c-2.8,0-5.4-0.4-7.8-1.3c-2.4-0.9-4.4-2.1-6.1-3.7c-1.7-1.6-3-3.5-4-5.6c-0.9-2.1-1.4-4.5-1.4-6.9c0-2.5,0.5-4.8,1.4-6.9
		c0.9-2.1,2.3-4,4-5.6c1.7-1.6,3.8-2.8,6.1-3.7c2.4-0.9,5-1.3,7.8-1.3c2.8,0,5.4,0.4,7.8,1.3s4.4,2.1,6.1,3.7c1.7,1.6,3.1,3.5,4,5.6
		C368.2,80.6,368.7,82.9,368.7,85.4z M363.3,85.4c0-2.4-0.6-4.5-1.8-6.4c-1.2-1.9-2.8-3.4-4.9-4.5c-2.1-1.1-4.5-1.6-7.2-1.6
		c-2.7,0-5.2,0.5-7.3,1.6c-2.1,1.1-3.7,2.6-4.9,4.5c-1.2,1.9-1.8,4-1.8,6.4c0,2.4,0.6,4.5,1.8,6.4c1.2,1.9,2.8,3.4,4.9,4.5
		c2.1,1.1,4.5,1.6,7.3,1.6c2.7,0,5.1-0.5,7.2-1.6c2.1-1.1,3.8-2.6,4.9-4.5C362.7,89.9,363.3,87.8,363.3,85.4z"/>
	<path class="st1" d="M427.6,68.3l-13,34.3h-3.7l-9.2-21.5l-9.2,21.5h-3.9l-12-34.3h5.7l7,20.6c0.3,0.9,0.6,1.8,0.9,2.7
		c0.3,0.9,0.5,1.9,0.8,2.7c0.3-0.9,0.7-1.8,1-2.7s0.7-1.9,1.1-2.8l6.3-14.7h4.9l6.1,14.6c0.4,0.9,0.8,1.9,1.1,2.8
		c0.4,0.9,0.7,1.8,1,2.7c0.3-0.9,0.5-1.8,0.8-2.8c0.3-1,0.6-1.9,1-2.9l7.5-20.3H427.6z"/>
</g>
</svg>
